<?xml version="1.0" standalone="no"?>
<!DOCTYPE svg PUBLIC "-//W3C//DTD SVG 20010904//EN"
 "http://www.w3.org/TR/2001/REC-SVG-20010904/DTD/svg10.dtd">
<svg version="1.0" xmlns="http://www.w3.org/2000/svg"
 width="980.000000pt" height="984.000000pt" viewBox="0 0 980.000000 984.000000"
 preserveAspectRatio="xMidYMid meet">

<g transform="translate(0.000000,984.000000) scale(0.100000,-0.100000)"
fill="#000000" stroke="none">
<path d="M565 9815 c-137 -30 -256 -95 -355 -195 -224 -224 -272 -552 -122
-845 33 -65 173 -208 2156 -2194 1345 -1346 2150 -2145 2200 -2182 154 -116
307 -172 471 -172 160 0 294 49 441 158 80 60 4203 4183 4285 4285 229 285
207 692 -51 951 -220 220 -563 272 -833 126 -75 -40 -166 -129 -1963 -1927
l-1884 -1885 -1867 1866 c-1028 1026 -1889 1881 -1916 1898 -167 112 -380 156
-562 116z"/>
<path d="M610 5609 c-84 -13 -187 -49 -258 -91 -86 -50 -220 -189 -264 -273
-63 -122 -83 -203 -83 -340 1 -177 41 -302 139 -432 25 -32 991 -1003 2148
-2159 1870 -1868 2113 -2108 2194 -2161 294 -194 583 -190 864 10 79 56 4208
4184 4283 4281 119 156 161 275 162 461 0 137 -19 217 -83 340 -55 107 -191
238 -302 292 -119 58 -194 76 -320 76 -128 0 -203 -17 -325 -77 l-90 -45
-1885 -1885 -1885 -1886 -1885 1884 -1885 1884 -95 46 c-52 25 -120 52 -150
60 -78 19 -204 26 -280 15z"/>
</g>
</svg>
